<?xml version="1.0" encoding="UTF-8"?>
<svg xmlns="http://www.w3.org/2000/svg" viewBox="0 0 320 380" width="320" height="380">
  <rect width="320" height="380" fill="#FFFFFF"/>

  <!-- ===================== CROWN ===================== -->
  <g>
    <path d="M 130 38 C 130 10, 190 10, 190 38 Z" fill="#8B1E1E" stroke="#111111" stroke-width="2.5"/>
    <rect x="120" y="38" width="80" height="14" rx="2" fill="#B8892F" stroke="#111111" stroke-width="2.5"/>
    <circle cx="131" cy="45" r="3" fill="#8B1E1E" stroke="#111111" stroke-width="1.6"/>
    <circle cx="145" cy="45" r="3" fill="#8B1E1E" stroke="#111111" stroke-width="1.6"/>
    <circle cx="160" cy="45" r="3.6" fill="#F5F1E6" stroke="#111111" stroke-width="1.6"/>
    <circle cx="175" cy="45" r="3" fill="#8B1E1E" stroke="#111111" stroke-width="1.6"/>
    <circle cx="189" cy="45" r="3" fill="#8B1E1E" stroke="#111111" stroke-width="1.6"/>
    <path d="M 126 38 L 134 22 L 142 38 Z" fill="#B8892F" stroke="#111111" stroke-width="2.5"/>
    <path d="M 178 38 L 186 22 L 194 38 Z" fill="#B8892F" stroke="#111111" stroke-width="2.5"/>
    <path d="M 136 24 Q 152 8 160 18" fill="none" stroke="#111111" stroke-width="6.5"/>
    <path d="M 136 24 Q 152 8 160 18" fill="none" stroke="#B8892F" stroke-width="3.6"/>
    <path d="M 184 24 Q 168 8 160 18" fill="none" stroke="#111111" stroke-width="6.5"/>
    <path d="M 184 24 Q 168 8 160 18" fill="none" stroke="#B8892F" stroke-width="3.6"/>
    <path d="M 152 20 L 160 12 L 168 20 Z" fill="#B8892F" stroke="#111111" stroke-width="2.5"/>
    <rect x="157" y="2" width="6" height="13" fill="#B8892F" stroke="#111111" stroke-width="2.5"/>
    <rect x="150" y="5" width="20" height="5" fill="#B8892F" stroke="#111111" stroke-width="2.5"/>
  </g>

  <!-- ===================== SHIELD ===================== -->
  <g>
    <path d="M 70 70 L 250 70 L 250 140 C 250 190 205 232 160 256 C 115 232 70 190 70 140 Z"
          fill="#111111" stroke="#B8892F" stroke-width="4.5"/>
    <path d="M 80 80 L 240 80 L 240 140 C 240 182 203 218 160 240 C 117 218 80 182 80 140 Z"
          fill="none" stroke="#B8892F" stroke-width="1.6" opacity="0.9"/>
  </g>

  <!-- ===================== MONOGRAM ===================== -->
  <g>
    <rect x="150" y="94" width="20" height="134" fill="#F5F1E6" stroke="#111111" stroke-width="2.5"/>
    <path d="M 132 102 L 188 102 L 182 92 L 138 92 Z" fill="#F5F1E6" stroke="#111111" stroke-width="2.5"/>
    <path d="M 134 162 L 186 162 L 180 152 L 140 152 Z" fill="#F5F1E6" stroke="#111111" stroke-width="2.5"/>
    <rect x="128" y="148" width="6" height="14" fill="#F5F1E6" stroke="#111111" stroke-width="2"/>
    <rect x="186" y="148" width="6" height="14" fill="#F5F1E6" stroke="#111111" stroke-width="2"/>
    <path d="M 134 156 C 112 158 104 144 108 130 C 111 120 118 118 120 126 C 118 134 122 144 134 148"
          fill="none" stroke="#111111" stroke-width="6"/>
    <path d="M 134 156 C 112 158 104 144 108 130 C 111 120 118 118 120 126 C 118 134 122 144 134 148"
          fill="none" stroke="#B8892F" stroke-width="3.4"/>
    <path d="M 186 156 C 208 158 216 144 212 130 C 209 120 202 118 200 126 C 202 134 198 144 186 148"
          fill="none" stroke="#111111" stroke-width="6"/>
    <path d="M 186 156 C 208 158 216 144 212 130 C 209 120 202 118 200 126 C 202 134 198 144 186 148"
          fill="none" stroke="#B8892F" stroke-width="3.4"/>
    <path d="M 150 212 L 170 212 L 178 236 L 142 236 Z" fill="#F5F1E6" stroke="#111111" stroke-width="2.5"/>
  </g>

  <!-- ===================== BANNER ===================== -->
  <g>
    <path d="M 102 318 L 114 306 L 126 318 L 114 330 Z" fill="#8B1E1E" stroke="#111111" stroke-width="2.5"/>
    <path d="M 218 318 L 206 306 L 194 318 L 206 330 Z" fill="#8B1E1E" stroke="#111111" stroke-width="2.5"/>
    <path d="M 96 288 L 224 288 L 218 302 L 224 316 L 96 316 L 102 302 Z" fill="#8B1E1E" stroke="#111111" stroke-width="2.5"/>
    <path d="M 100 292 L 220 292" stroke="#B8892F" stroke-width="2.2" fill="none"/>
    <path d="M 102 312 L 218 312" stroke="#B8892F" stroke-width="2.2" fill="none"/>
    <text x="160" y="307" text-anchor="middle" font-family="Georgia, 'Times New Roman', serif" font-size="9" fill="#B8892F" letter-spacing="3">BRADY LEGAL</text>
    <circle cx="112" cy="302" r="1.8" fill="#B8892F"/>
    <circle cx="208" cy="302" r="1.8" fill="#B8892F"/>
  </g>
</svg>
